<mxfile host="app.diagrams.net" modified="2024-05-17T03:27:56.087Z" agent="Mozilla/5.0 (Windows NT 10.0; Win64; x64) AppleWebKit/537.36 (KHTML, like Gecko) Chrome/124.0.0.0 Safari/537.36" version="24.2.1" etag="5ijSA2gPJsnqGa8YPtlo" type="github">
  <diagram name="第 1 页" id="Fur1-BPCWcoeGo0ZYYzF">
    <mxGraphModel>
      <root>
        <mxCell id="0" />
        <mxCell id="1" parent="0" />
      </root>
    </mxGraphModel>
  </diagram>
</mxfile>
